<?xml version="1.0"?>
<svg xmlns="http://www.w3.org/2000/svg" viewBox="0 0 1038 621">
    <g transform="translate(0,621) scale(0.1,-0.1)" fill="white" stroke="none">
        <path d="M1256 6179 c-104 -10 -190 -20 -191 -21 -1 -2 -241 -1312 -533 -2913
            -338 -1852 -528 -2911 -521 -2915 5 -4 119 -15 252 -25 l242 -18 1107 487
            c608 267 1110 486 1115 486 4 0 41 -27 81 -60 493 -403 1133 -647 1857 -710
            154 -13 486 -13 640 0 458 40 925 164 1277 341 l76 38 453 -434 453 -434 121
            127 c67 70 699 728 1404 1462 l1283 1335 -6 59 c-3 32 -6 138 -6 235 l0 177
            -1452 1394 c-799 767 -1457 1395 -1463 1395 -6 0 -252 -252 -548 -560 -296
            -308 -544 -559 -550 -558 -7 1 -73 22 -147 48 -235 80 -511 141 -800 177 -140
            17 -678 17 -825 0 -542 -64 -989 -207 -1412 -454 l-102 -59 -747 708 -747 708
            -61 2 c-34 0 -146 -7 -250 -18z m6987 -2319 l767 -735 -98 -100 c-55 -55 -319
            -329 -587 -610 -269 -280 -551 -574 -626 -652 l-138 -142 55 84 c119 183 212
            411 256 627 22 108 23 134 23 563 0 427 -1 456 -22 561 -61 297 -203 588 -405
            829 -41 50 -92 105 -111 124 l-36 34 72 78 c40 43 75 77 78 76 3 -1 351 -333
            772 -737z m-5969 86 c-92 -177 -142 -317 -181 -511 -16 -79 -18 -145 -18 -545
            0 -431 1 -460 22 -555 12 -54 21 -100 20 -102 -4 -3 -485 -222 -514 -234 -16
            -6 -21 -5 -18 4 2 7 103 534 225 1172 122 638 224 1166 226 1174 3 10 55 -35
            153 -133 l149 -148 -64 -122z m3021 269 c72 -8 150 -18 175 -23 l44 -7 -433
            -453 -433 -452 -36 32 c-126 109 -731 692 -727 699 8 12 146 63 279 104 137
            41 320 79 456 94 52 6 109 13 125 15 86 10 434 4 550 -9z m1472 -671 c153
            -171 245 -327 303 -516 l18 -57 -29 -85 c-53 -159 -157 -335 -272 -461 l-53
            -59 -367 353 -367 353 218 227 c121 124 256 265 302 314 l82 87 50 -41 c27
            -23 79 -75 115 -115z m-3430 -466 l272 -272 -277 -102 c-196 -72 -281 -99
            -289 -92 -21 17 -121 229 -141 299 l-19 65 24 73 c39 121 129 301 151 301 4 0
            129 -122 279 -272z m2073 -1010 c188 -181 268 -263 258 -269 -18 -9 -150 -36
            -278 -55 -146 -21 -517 -30 -677 -15 -70 7 -186 23 -258 36 -132 25 -344 80
            -358 94 -4 4 190 96 430 204 241 108 472 212 513 231 41 19 80 35 86 35 7 1
            134 -117 284 -261z"/>
    </g>
</svg>